<svg xmlns="http://www.w3.org/2000/svg" xmlns:xlink="http://www.w3.org/1999/xlink" width="250" zoomAndPan="magnify" viewBox="0 0 187.5 60" height="80" preserveAspectRatio="xMidYMid meet" version="1.2"><defs><clipPath id="8cd5360679"><path d="M 0 0.078125 L 187 0.078125 L 187 59.917969 L 0 59.917969 Z M 0 0.078125 "/></clipPath><clipPath id="d61bd98d41"><path d="M 22 25 L 85.273438 25 L 85.273438 51 L 22 51 Z M 22 25 "/></clipPath><clipPath id="7d5b331a9e"><path d="M 47 3.066406 L 81 3.066406 L 81 18 L 47 18 Z M 47 3.066406 "/></clipPath><clipPath id="2fd45e00aa"><path d="M 3 22 L 52 22 L 52 54.679688 L 3 54.679688 Z M 3 22 "/></clipPath></defs><g id="cf6d97a8b8"><g clip-rule="nonzero" clip-path="url(#8cd5360679)"><path style=" stroke:none;fill-rule:nonzero;fill:#ffffff;fill-opacity:1;" d="M 0 0.078125 L 187 0.078125 L 187 59.921875 L 0 59.921875 Z M 0 0.078125 "/><path style=" stroke:none;fill-rule:nonzero;fill:#ffffff;fill-opacity:1;" d="M 0 0.078125 L 187 0.078125 L 187 59.921875 L 0 59.921875 Z M 0 0.078125 "/></g><path style=" stroke:none;fill-rule:evenodd;fill:#0232a0;fill-opacity:1;" d="M 53.550781 51.949219 C 51.515625 51.703125 49.546875 51.570312 47.539062 51.25 C 42.613281 50.457031 36.664062 48.828125 32.457031 46.621094 C 29.410156 45.023438 25.984375 42.9375 23.898438 40.710938 C 22.808594 39.550781 22.816406 39.664062 21.707031 38.167969 C 17.324219 32.242188 18.492188 25.636719 24.074219 20.652344 C 27.410156 17.671875 32.117188 15.683594 36.375 14.46875 C 39.039062 13.707031 42.46875 13.074219 45.316406 12.832031 C 45.644531 12.804688 46.328125 12.796875 46.585938 12.652344 C 42.984375 12.261719 37.1875 12.816406 33.601562 13.429688 C 28.515625 14.300781 25.800781 15.398438 21.617188 17.332031 C 20.492188 17.855469 18.273438 19.347656 17.246094 20.160156 C 16.914062 20.425781 16.558594 20.726562 16.265625 21.023438 C 14.898438 22.433594 14.007812 23.320312 13.035156 25.171875 C 12.609375 25.988281 12.222656 26.886719 11.996094 27.871094 C 10.777344 33.175781 13.121094 37.183594 16.5 40.691406 C 16.789062 40.992188 17.128906 41.34375 17.441406 41.605469 C 20.964844 44.582031 23.347656 45.960938 27.84375 47.878906 C 31.292969 49.355469 35.773438 50.589844 39.785156 51.21875 C 42.054688 51.570312 44.410156 51.859375 46.777344 51.972656 C 48.003906 52.03125 52.699219 52.210938 53.550781 51.949219 Z M 53.550781 51.949219 "/><g clip-rule="nonzero" clip-path="url(#d61bd98d41)"><path style=" stroke:none;fill-rule:evenodd;fill:#fe0000;fill-opacity:1;" d="M 85.085938 44.59375 C 80.058594 46.558594 72.976562 47.519531 67.453125 47.679688 C 54.046875 48.066406 37.109375 44.242188 27.851562 34.171875 C 25.90625 32.058594 23.925781 28.492188 23.695312 25.050781 C 23.5 25.25 23.472656 25.367188 23.390625 25.660156 C 22.5625 28.660156 23.015625 31.863281 24.503906 34.519531 C 25.613281 36.5 26.78125 37.960938 28.332031 39.421875 C 32.804688 43.652344 39.414062 46.570312 46.367188 48.394531 C 55.53125 50.796875 68.152344 50.960938 77.199219 48.039062 C 79.085938 47.429688 83.511719 45.84375 85.085938 44.59375 Z M 85.085938 44.59375 "/></g><g clip-rule="nonzero" clip-path="url(#7d5b331a9e)"><path style=" stroke:none;fill-rule:evenodd;fill:#fe0000;fill-opacity:1;" d="M 52.890625 3.085938 C 53 3.289062 53.742188 3.84375 53.992188 4.039062 C 56.042969 5.625 59.289062 8.023438 61.21875 9.621094 C 61.339844 9.71875 61.398438 9.753906 61.515625 9.859375 L 61.757812 10.117188 C 60.519531 10.1875 59.074219 10.390625 57.777344 10.53125 C 57.125 10.601562 56.488281 10.675781 55.824219 10.742188 C 54.882812 10.839844 54.925781 10.683594 54.257812 10.207031 C 53.617188 9.75 52.179688 8.65625 51.367188 8.4375 C 50.511719 8.207031 48.082031 7.957031 47.113281 7.902344 L 51.429688 11.925781 C 50.875 11.984375 50.140625 12.273438 49.554688 12.421875 C 48.984375 12.570312 48.195312 12.71875 48.085938 13.183594 L 50.140625 13.328125 C 49.90625 13.785156 49.523438 14.101562 49.265625 14.527344 C 50.03125 14.566406 51.464844 14.488281 52.085938 14.214844 C 53.453125 13.613281 52.695312 13.488281 54.609375 13.550781 C 55.6875 13.585938 56.769531 13.617188 57.847656 13.652344 C 58.382812 13.671875 58.910156 13.671875 59.445312 13.683594 C 59.761719 13.691406 60.453125 13.660156 60.738281 13.757812 L 60.871094 13.832031 C 60.628906 13.976562 57.039062 17.027344 56.925781 17.183594 C 57.976562 17.085938 60.492188 16.347656 61.566406 15.773438 C 66.558594 13.101562 64.59375 13.75 69.492188 13.554688 C 71.894531 13.457031 77.804688 13.203125 79.832031 11.828125 C 80.238281 11.550781 80.519531 10.972656 80.101562 10.464844 C 79.90625 10.230469 79.109375 9.863281 78.734375 9.675781 C 75.738281 8.171875 75.492188 8.050781 71.84375 8.492188 C 70.695312 8.632812 69.46875 8.769531 68.277344 8.90625 C 66.160156 9.15625 66.835938 9.175781 65.160156 8.265625 C 62.382812 6.757812 56.339844 3.316406 52.890625 3.085938 Z M 52.890625 3.085938 "/></g><g clip-rule="nonzero" clip-path="url(#2fd45e00aa)"><path style=" stroke:none;fill-rule:evenodd;fill:#fe0000;fill-opacity:1;" d="M 51.488281 53.90625 C 50.824219 53.859375 50.035156 53.917969 49.191406 53.914062 C 48.476562 53.914062 47.710938 53.917969 46.972656 53.902344 C 37.09375 53.648438 27.464844 51.386719 19.007812 46.738281 C 16.941406 45.601562 15.039062 44.195312 13.289062 42.730469 L 10.855469 40.316406 L 8.867188 37.601562 C 6.664062 33.855469 6.101562 30.5 7.46875 26.234375 C 7.648438 25.675781 7.96875 25.007812 8.226562 24.542969 C 8.382812 24.261719 8.523438 23.996094 8.679688 23.742188 C 9.125 23.027344 9.21875 23.132812 9.078125 22.960938 L 6.429688 25.703125 C 3.53125 29.480469 2.992188 33.605469 4.789062 37.925781 C 5.679688 40.066406 6.703125 41.117188 7.980469 42.636719 C 8.554688 43.316406 9.304688 44.027344 9.984375 44.597656 C 10.738281 45.230469 11.398438 45.808594 12.230469 46.355469 C 21.023438 52.160156 31.433594 54.589844 42.273438 54.652344 C 43.132812 54.660156 50.398438 54.375 51.488281 53.90625 Z M 51.488281 53.90625 "/></g><g style="fill:#0232a0;fill-opacity:1;"><g transform="translate(38.391459, 40.460519)"><path style="stroke:none" d="M 1.375 -14.84375 L 5.046875 -14.84375 C 6.515625 -14.84375 7.5625 -14.648438 8.1875 -14.265625 C 8.8125 -13.878906 9.207031 -13.207031 9.375 -12.25 C 9.550781 -11.289062 9.640625 -9.679688 9.640625 -7.421875 C 9.640625 -5.160156 9.550781 -3.550781 9.375 -2.59375 C 9.207031 -1.644531 8.8125 -0.972656 8.1875 -0.578125 C 7.5625 -0.191406 6.515625 0 5.046875 0 L 1.375 0 Z M 5 -1.765625 C 5.863281 -1.765625 6.457031 -1.863281 6.78125 -2.0625 C 7.101562 -2.257812 7.316406 -2.71875 7.421875 -3.4375 C 7.535156 -4.164062 7.59375 -5.492188 7.59375 -7.421875 C 7.59375 -9.335938 7.535156 -10.660156 7.421875 -11.390625 C 7.316406 -12.128906 7.101562 -12.59375 6.78125 -12.78125 C 6.457031 -12.976562 5.863281 -13.078125 5 -13.078125 L 3.40625 -13.078125 L 3.40625 -1.765625 Z M 5 -1.765625 "/></g></g><g style="fill:#0232a0;fill-opacity:1;"><g transform="translate(49.092754, 40.460519)"><path style="stroke:none" d="M 1.25 -11 L 2.984375 -11 L 3.0625 -9.015625 L 3.1875 -9.015625 C 3.394531 -9.835938 3.71875 -10.398438 4.15625 -10.703125 C 4.601562 -11.015625 5.203125 -11.171875 5.953125 -11.171875 L 5.953125 -9.234375 C 5.234375 -9.234375 4.671875 -9.09375 4.265625 -8.8125 C 3.867188 -8.53125 3.585938 -8.09375 3.421875 -7.5 C 3.253906 -6.90625 3.171875 -6.109375 3.171875 -5.109375 L 3.171875 0 L 1.25 0 Z M 1.25 -11 "/></g></g><g style="fill:#0232a0;fill-opacity:1;"><g transform="translate(55.327953, 40.460519)"><path style="stroke:none" d="M 8.265625 -4.890625 L 2.828125 -4.890625 C 2.828125 -3.828125 2.875 -3.066406 2.96875 -2.609375 C 3.070312 -2.160156 3.285156 -1.851562 3.609375 -1.6875 C 3.929688 -1.53125 4.484375 -1.453125 5.265625 -1.453125 C 6.054688 -1.453125 6.957031 -1.519531 7.96875 -1.65625 L 7.96875 -0.15625 C 7.613281 -0.0625 7.144531 0.015625 6.5625 0.078125 C 5.988281 0.140625 5.425781 0.171875 4.875 0.171875 C 3.675781 0.171875 2.800781 0 2.25 -0.34375 C 1.695312 -0.6875 1.335938 -1.234375 1.171875 -1.984375 C 1.003906 -2.742188 0.921875 -3.910156 0.921875 -5.484375 C 0.921875 -7.035156 0.992188 -8.1875 1.140625 -8.9375 C 1.296875 -9.695312 1.640625 -10.257812 2.171875 -10.625 C 2.710938 -10.988281 3.570312 -11.171875 4.75 -11.171875 C 5.875 -11.171875 6.675781 -11 7.15625 -10.65625 C 7.644531 -10.3125 7.953125 -9.769531 8.078125 -9.03125 C 8.203125 -8.300781 8.265625 -7.125 8.265625 -5.5 Z M 4.703125 -9.609375 C 4.128906 -9.609375 3.710938 -9.523438 3.453125 -9.359375 C 3.203125 -9.203125 3.035156 -8.898438 2.953125 -8.453125 C 2.878906 -8.015625 2.835938 -7.273438 2.828125 -6.234375 L 6.4375 -6.234375 L 6.4375 -6.40625 C 6.4375 -7.382812 6.390625 -8.09375 6.296875 -8.53125 C 6.203125 -8.96875 6.035156 -9.253906 5.796875 -9.390625 C 5.566406 -9.535156 5.203125 -9.609375 4.703125 -9.609375 Z M 4.703125 -9.609375 "/></g></g><g style="fill:#0232a0;fill-opacity:1;"><g transform="translate(64.540565, 40.460519)"><path style="stroke:none" d="M 3.390625 0.171875 C 2.421875 0.171875 1.722656 -0.0664062 1.296875 -0.546875 C 0.878906 -1.023438 0.671875 -1.863281 0.671875 -3.0625 C 0.671875 -3.894531 0.753906 -4.546875 0.921875 -5.015625 C 1.085938 -5.484375 1.367188 -5.820312 1.765625 -6.03125 C 2.160156 -6.238281 2.71875 -6.34375 3.4375 -6.34375 C 4.082031 -6.34375 4.953125 -6.3125 6.046875 -6.25 L 6.046875 -6.953125 C 6.046875 -7.785156 5.988281 -8.375 5.875 -8.71875 C 5.757812 -9.070312 5.550781 -9.300781 5.25 -9.40625 C 4.957031 -9.507812 4.457031 -9.5625 3.75 -9.5625 C 3.144531 -9.5625 2.289062 -9.492188 1.1875 -9.359375 L 1.1875 -10.859375 C 2.144531 -11.066406 3.179688 -11.171875 4.296875 -11.171875 C 5.328125 -11.171875 6.101562 -11.039062 6.625 -10.78125 C 7.144531 -10.53125 7.5 -10.101562 7.6875 -9.5 C 7.875 -8.90625 7.96875 -8.039062 7.96875 -6.90625 L 7.96875 0 L 6.21875 0 L 6.125 -1.453125 L 6 -1.453125 C 5.78125 -0.796875 5.441406 -0.359375 4.984375 -0.140625 C 4.523438 0.0664062 3.992188 0.171875 3.390625 0.171875 Z M 4.125 -1.453125 C 4.519531 -1.453125 4.847656 -1.5 5.109375 -1.59375 C 5.367188 -1.695312 5.570312 -1.90625 5.71875 -2.21875 C 5.9375 -2.726562 6.046875 -3.4375 6.046875 -4.34375 L 6.046875 -5 L 3.96875 -5 C 3.5625 -5 3.257812 -4.957031 3.0625 -4.875 C 2.875 -4.789062 2.742188 -4.625 2.671875 -4.375 C 2.597656 -4.132812 2.5625 -3.75 2.5625 -3.21875 C 2.5625 -2.707031 2.601562 -2.328125 2.6875 -2.078125 C 2.769531 -1.835938 2.914062 -1.671875 3.125 -1.578125 C 3.34375 -1.492188 3.675781 -1.453125 4.125 -1.453125 Z M 4.125 -1.453125 "/></g></g><g style="fill:#0232a0;fill-opacity:1;"><g transform="translate(73.688449, 40.460519)"><path style="stroke:none" d="M 11.609375 -6.296875 C 11.609375 -7.304688 11.578125 -8.019531 11.515625 -8.4375 C 11.453125 -8.851562 11.316406 -9.125 11.109375 -9.25 C 10.910156 -9.382812 10.570312 -9.453125 10.09375 -9.453125 C 9.550781 -9.453125 9.148438 -9.328125 8.890625 -9.078125 C 8.640625 -8.828125 8.484375 -8.460938 8.421875 -7.984375 C 8.367188 -7.503906 8.34375 -6.753906 8.34375 -5.734375 L 8.34375 0 L 6.4375 0 L 6.4375 -6.296875 C 6.4375 -7.296875 6.398438 -8.003906 6.328125 -8.421875 C 6.253906 -8.847656 6.117188 -9.125 5.921875 -9.25 C 5.722656 -9.382812 5.390625 -9.453125 4.921875 -9.453125 C 4.367188 -9.453125 3.96875 -9.320312 3.71875 -9.0625 C 3.46875 -8.800781 3.3125 -8.425781 3.25 -7.9375 C 3.195312 -7.445312 3.171875 -6.710938 3.171875 -5.734375 L 3.171875 0 L 1.25 0 L 1.25 -11 L 2.984375 -11 L 3.0625 -9.53125 L 3.1875 -9.53125 C 3.394531 -10.0625 3.691406 -10.46875 4.078125 -10.75 C 4.460938 -11.03125 5.007812 -11.171875 5.71875 -11.171875 C 6.476562 -11.171875 7.039062 -11.046875 7.40625 -10.796875 C 7.78125 -10.546875 8.035156 -10.125 8.171875 -9.53125 L 8.3125 -9.53125 C 8.5 -10.0625 8.796875 -10.46875 9.203125 -10.75 C 9.609375 -11.03125 10.164062 -11.171875 10.875 -11.171875 C 11.625 -11.171875 12.1875 -11.03125 12.5625 -10.75 C 12.9375 -10.46875 13.191406 -10.039062 13.328125 -9.46875 C 13.460938 -8.894531 13.53125 -8.09375 13.53125 -7.0625 L 13.53125 0 L 11.609375 0 Z M 11.609375 -6.296875 "/></g></g><g style="fill:#0232a0;fill-opacity:1;"><g transform="translate(88.424311, 40.460519)"><path style="stroke:none" d="M 4.8125 0.171875 C 4.238281 0.171875 3.601562 0.140625 2.90625 0.078125 C 2.21875 0.0234375 1.609375 -0.0390625 1.078125 -0.125 L 1.078125 -1.828125 C 2.316406 -1.671875 3.359375 -1.59375 4.203125 -1.59375 C 4.753906 -1.59375 5.191406 -1.628906 5.515625 -1.703125 C 5.835938 -1.785156 6.09375 -1.921875 6.28125 -2.109375 C 6.445312 -2.285156 6.554688 -2.53125 6.609375 -2.84375 C 6.671875 -3.164062 6.703125 -3.582031 6.703125 -4.09375 C 6.703125 -4.800781 6.671875 -5.300781 6.609375 -5.59375 C 6.546875 -5.894531 6.398438 -6.101562 6.171875 -6.21875 C 5.953125 -6.34375 5.570312 -6.445312 5.03125 -6.53125 L 2.703125 -6.921875 C 1.921875 -7.054688 1.40625 -7.425781 1.15625 -8.03125 C 0.90625 -8.644531 0.78125 -9.570312 0.78125 -10.8125 C 0.78125 -12.363281 1.113281 -13.453125 1.78125 -14.078125 C 2.445312 -14.703125 3.476562 -15.015625 4.875 -15.015625 C 5.476562 -15.015625 6.082031 -14.984375 6.6875 -14.921875 C 7.300781 -14.859375 7.796875 -14.773438 8.171875 -14.671875 L 8.171875 -13.015625 C 7.253906 -13.171875 6.320312 -13.25 5.375 -13.25 C 4.78125 -13.25 4.316406 -13.203125 3.984375 -13.109375 C 3.660156 -13.023438 3.410156 -12.890625 3.234375 -12.703125 C 3.066406 -12.515625 2.953125 -12.273438 2.890625 -11.984375 C 2.835938 -11.703125 2.8125 -11.328125 2.8125 -10.859375 C 2.8125 -10.253906 2.835938 -9.816406 2.890625 -9.546875 C 2.953125 -9.285156 3.0625 -9.097656 3.21875 -8.984375 C 3.382812 -8.878906 3.664062 -8.796875 4.0625 -8.734375 L 6.25 -8.375 C 6.832031 -8.269531 7.296875 -8.101562 7.640625 -7.875 C 7.992188 -7.65625 8.273438 -7.289062 8.484375 -6.78125 C 8.648438 -6.289062 8.734375 -5.476562 8.734375 -4.34375 C 8.734375 -3.175781 8.597656 -2.265625 8.328125 -1.609375 C 8.066406 -0.953125 7.65625 -0.488281 7.09375 -0.21875 C 6.53125 0.0390625 5.769531 0.171875 4.8125 0.171875 Z M 4.8125 0.171875 "/></g></g><g style="fill:#0232a0;fill-opacity:1;"><g transform="translate(97.960546, 40.460519)"><path style="stroke:none" d="M 6.515625 0 L 4.140625 -4.71875 L 3.171875 -4.71875 L 3.171875 0 L 1.25 0 L 1.25 -16.03125 L 3.171875 -16.03125 L 3.171875 -6.34375 L 4.140625 -6.34375 L 6.515625 -11 L 8.546875 -11 L 5.71875 -5.703125 L 8.609375 0 Z M 6.515625 0 "/></g></g><g style="fill:#0232a0;fill-opacity:1;"><g transform="translate(106.91425, 40.460519)"><path style="stroke:none" d="M 4.46875 4.296875 C 3.363281 4.296875 2.40625 4.238281 1.59375 4.125 L 1.59375 2.609375 C 2.269531 2.648438 3.09375 2.671875 4.0625 2.671875 C 4.832031 2.671875 5.394531 2.566406 5.75 2.359375 C 6.101562 2.148438 6.328125 1.8125 6.421875 1.34375 C 6.515625 0.875 6.5625 0.128906 6.5625 -0.890625 L 6.5625 -1.421875 L 6.4375 -1.421875 C 6.257812 -0.929688 5.972656 -0.554688 5.578125 -0.296875 C 5.179688 -0.0351562 4.625 0.09375 3.90625 0.09375 C 3.113281 0.09375 2.519531 -0.0625 2.125 -0.375 C 1.738281 -0.6875 1.484375 -1.148438 1.359375 -1.765625 C 1.242188 -2.390625 1.1875 -3.28125 1.1875 -4.4375 L 1.1875 -11 L 3.109375 -11 L 3.109375 -4.765625 C 3.109375 -3.773438 3.144531 -3.066406 3.21875 -2.640625 C 3.300781 -2.210938 3.445312 -1.9375 3.65625 -1.8125 C 3.875 -1.6875 4.238281 -1.625 4.75 -1.625 C 5.320312 -1.625 5.734375 -1.75 5.984375 -2 C 6.234375 -2.257812 6.390625 -2.628906 6.453125 -3.109375 C 6.523438 -3.597656 6.5625 -4.332031 6.5625 -5.3125 L 6.5625 -11 L 8.484375 -11 L 8.484375 -1.46875 C 8.484375 0.0390625 8.390625 1.1875 8.203125 1.96875 C 8.023438 2.757812 7.648438 3.34375 7.078125 3.71875 C 6.515625 4.101562 5.644531 4.296875 4.46875 4.296875 Z M 4.46875 4.296875 "/></g></g><g style="fill:#0232a0;fill-opacity:1;"><g transform="translate(116.644664, 40.460519)"><path style="stroke:none" d=""/></g></g><g style="fill:#0232a0;fill-opacity:1;"><g transform="translate(120.787102, 40.460519)"><path style="stroke:none" d="M 8.3125 0 L 7.40625 -3.796875 L 3.21875 -3.796875 L 2.328125 0 L 0.296875 0 L 3.953125 -14.84375 L 6.75 -14.84375 L 10.375 0 Z M 5.375 -12.640625 L 5.25 -12.640625 L 3.625 -5.546875 L 6.984375 -5.546875 Z M 5.375 -12.640625 "/></g></g><g style="fill:#0232a0;fill-opacity:1;"><g transform="translate(131.466825, 40.460519)"><path style="stroke:none" d="M 1.203125 -13.984375 L 1.203125 -16.03125 L 3.1875 -16.03125 L 3.1875 -13.984375 Z M 1.25 0 L 1.25 -11 L 3.171875 -11 L 3.171875 0 Z M 1.25 0 "/></g></g><g style="fill:#0232a0;fill-opacity:1;"><g transform="translate(135.86817, 40.460519)"><path style="stroke:none" d="M 1.25 -11 L 2.984375 -11 L 3.0625 -9.015625 L 3.1875 -9.015625 C 3.394531 -9.835938 3.71875 -10.398438 4.15625 -10.703125 C 4.601562 -11.015625 5.203125 -11.171875 5.953125 -11.171875 L 5.953125 -9.234375 C 5.234375 -9.234375 4.671875 -9.09375 4.265625 -8.8125 C 3.867188 -8.53125 3.585938 -8.09375 3.421875 -7.5 C 3.253906 -6.90625 3.171875 -6.109375 3.171875 -5.109375 L 3.171875 0 L 1.25 0 Z M 1.25 -11 "/></g></g><g style="fill:#0232a0;fill-opacity:1;"><g transform="translate(142.211274, 40.460519)"><path style="stroke:none" d="M 8.3125 0 L 6.78125 -7.6875 L 6.625 -7.6875 L 5.09375 0 L 2.71875 0 L 0.40625 -11 L 2.359375 -11 L 3.921875 -2.421875 L 4.0625 -2.421875 L 5.734375 -11 L 7.6875 -11 L 9.40625 -2.421875 L 9.5625 -2.421875 L 11.109375 -11 L 12.96875 -11 L 10.65625 0 Z M 8.3125 0 "/></g></g><g style="fill:#0232a0;fill-opacity:1;"><g transform="translate(155.372097, 40.460519)"><path style="stroke:none" d="M 3.390625 0.171875 C 2.421875 0.171875 1.722656 -0.0664062 1.296875 -0.546875 C 0.878906 -1.023438 0.671875 -1.863281 0.671875 -3.0625 C 0.671875 -3.894531 0.753906 -4.546875 0.921875 -5.015625 C 1.085938 -5.484375 1.367188 -5.820312 1.765625 -6.03125 C 2.160156 -6.238281 2.71875 -6.34375 3.4375 -6.34375 C 4.082031 -6.34375 4.953125 -6.3125 6.046875 -6.25 L 6.046875 -6.953125 C 6.046875 -7.785156 5.988281 -8.375 5.875 -8.71875 C 5.757812 -9.070312 5.550781 -9.300781 5.25 -9.40625 C 4.957031 -9.507812 4.457031 -9.5625 3.75 -9.5625 C 3.144531 -9.5625 2.289062 -9.492188 1.1875 -9.359375 L 1.1875 -10.859375 C 2.144531 -11.066406 3.179688 -11.171875 4.296875 -11.171875 C 5.328125 -11.171875 6.101562 -11.039062 6.625 -10.78125 C 7.144531 -10.53125 7.5 -10.101562 7.6875 -9.5 C 7.875 -8.90625 7.96875 -8.039062 7.96875 -6.90625 L 7.96875 0 L 6.21875 0 L 6.125 -1.453125 L 6 -1.453125 C 5.78125 -0.796875 5.441406 -0.359375 4.984375 -0.140625 C 4.523438 0.0664062 3.992188 0.171875 3.390625 0.171875 Z M 4.125 -1.453125 C 4.519531 -1.453125 4.847656 -1.5 5.109375 -1.59375 C 5.367188 -1.695312 5.570312 -1.90625 5.71875 -2.21875 C 5.9375 -2.726562 6.046875 -3.4375 6.046875 -4.34375 L 6.046875 -5 L 3.96875 -5 C 3.5625 -5 3.257812 -4.957031 3.0625 -4.875 C 2.875 -4.789062 2.742188 -4.625 2.671875 -4.375 C 2.597656 -4.132812 2.5625 -3.75 2.5625 -3.21875 C 2.5625 -2.707031 2.601562 -2.328125 2.6875 -2.078125 C 2.769531 -1.835938 2.914062 -1.671875 3.125 -1.578125 C 3.34375 -1.492188 3.675781 -1.453125 4.125 -1.453125 Z M 4.125 -1.453125 "/></g></g><g style="fill:#0232a0;fill-opacity:1;"><g transform="translate(164.519982, 40.460519)"><path style="stroke:none" d="M 4.46875 4.296875 C 3.363281 4.296875 2.40625 4.238281 1.59375 4.125 L 1.59375 2.609375 C 2.269531 2.648438 3.09375 2.671875 4.0625 2.671875 C 4.832031 2.671875 5.394531 2.566406 5.75 2.359375 C 6.101562 2.148438 6.328125 1.8125 6.421875 1.34375 C 6.515625 0.875 6.5625 0.128906 6.5625 -0.890625 L 6.5625 -1.421875 L 6.4375 -1.421875 C 6.257812 -0.929688 5.972656 -0.554688 5.578125 -0.296875 C 5.179688 -0.0351562 4.625 0.09375 3.90625 0.09375 C 3.113281 0.09375 2.519531 -0.0625 2.125 -0.375 C 1.738281 -0.6875 1.484375 -1.148438 1.359375 -1.765625 C 1.242188 -2.390625 1.1875 -3.28125 1.1875 -4.4375 L 1.1875 -11 L 3.109375 -11 L 3.109375 -4.765625 C 3.109375 -3.773438 3.144531 -3.066406 3.21875 -2.640625 C 3.300781 -2.210938 3.445312 -1.9375 3.65625 -1.8125 C 3.875 -1.6875 4.238281 -1.625 4.75 -1.625 C 5.320312 -1.625 5.734375 -1.75 5.984375 -2 C 6.234375 -2.257812 6.390625 -2.628906 6.453125 -3.109375 C 6.523438 -3.597656 6.5625 -4.332031 6.5625 -5.3125 L 6.5625 -11 L 8.484375 -11 L 8.484375 -1.46875 C 8.484375 0.0390625 8.390625 1.1875 8.203125 1.96875 C 8.023438 2.757812 7.648438 3.34375 7.078125 3.71875 C 6.515625 4.101562 5.644531 4.296875 4.46875 4.296875 Z M 4.46875 4.296875 "/></g></g><g style="fill:#0232a0;fill-opacity:1;"><g transform="translate(174.250397, 40.460519)"><path style="stroke:none" d="M 4.03125 0.171875 C 3.5625 0.171875 3.035156 0.140625 2.453125 0.078125 C 1.878906 0.0234375 1.394531 -0.0351562 1 -0.109375 L 1 -1.625 C 1.851562 -1.488281 2.765625 -1.421875 3.734375 -1.421875 C 4.234375 -1.421875 4.613281 -1.476562 4.875 -1.59375 C 5.132812 -1.707031 5.300781 -1.875 5.375 -2.09375 C 5.457031 -2.320312 5.5 -2.640625 5.5 -3.046875 C 5.5 -3.515625 5.472656 -3.851562 5.421875 -4.0625 C 5.367188 -4.269531 5.28125 -4.40625 5.15625 -4.46875 C 5.03125 -4.539062 4.804688 -4.597656 4.484375 -4.640625 L 2.421875 -4.9375 C 1.785156 -5.039062 1.34375 -5.3125 1.09375 -5.75 C 0.851562 -6.1875 0.734375 -6.914062 0.734375 -7.9375 C 0.734375 -9.1875 1.023438 -10.035156 1.609375 -10.484375 C 2.191406 -10.941406 3.054688 -11.171875 4.203125 -11.171875 C 4.679688 -11.171875 5.175781 -11.140625 5.6875 -11.078125 C 6.195312 -11.023438 6.601562 -10.957031 6.90625 -10.875 L 6.90625 -9.359375 C 6.1875 -9.503906 5.34375 -9.578125 4.375 -9.578125 C 3.726562 -9.578125 3.273438 -9.472656 3.015625 -9.265625 C 2.753906 -9.054688 2.625 -8.632812 2.625 -8 C 2.625 -7.570312 2.648438 -7.257812 2.703125 -7.0625 C 2.753906 -6.875 2.84375 -6.742188 2.96875 -6.671875 C 3.09375 -6.597656 3.296875 -6.539062 3.578125 -6.5 L 5.484375 -6.234375 C 5.929688 -6.179688 6.285156 -6.0625 6.546875 -5.875 C 6.816406 -5.695312 7.019531 -5.394531 7.15625 -4.96875 C 7.300781 -4.550781 7.375 -3.9375 7.375 -3.125 C 7.375 -1.875 7.109375 -1.007812 6.578125 -0.53125 C 6.046875 -0.0625 5.195312 0.171875 4.03125 0.171875 Z M 4.03125 0.171875 "/></g></g><g style="fill:#0232a0;fill-opacity:1;"><g transform="translate(182.370789, 40.460519)"><path style="stroke:none" d=""/></g></g></g></svg>